<mxfile host="app.diagrams.net" modified="2024-06-02T06:40:56.173Z" agent="Mozilla/5.0 (Windows NT 10.0; Win64; x64) AppleWebKit/537.36 (KHTML, like Gecko) Chrome/125.0.0.0 Safari/537.36" version="24.4.13" etag="36aSnLLnukzQ56tQZmNv" type="github">
  <diagram name="페이지-1" id="O7uIJOGoLvVjkmHBimCB">
    <mxGraphModel>
      <root>
        <mxCell id="0" />
        <mxCell id="1" parent="0" />
      </root>
    </mxGraphModel>
  </diagram>
</mxfile>
